<svg width="25" height="14" viewBox="0 0 25 14" fill="none" xmlns="http://www.w3.org/2000/svg">
<path d="M6.29516 10.3916C5.81779 10.8689 5.17036 11.1371 4.49526 11.1371C3.36517 11.1371 2.40705 10.4007 2.07475 9.38148L0 11.4562C0.946562 12.9385 2.60613 13.9214 4.49526 13.9214C5.90879 13.9214 7.26441 13.3598 8.26392 12.3603L17.0944 3.52981C17.5718 3.05245 18.2192 2.78428 18.8943 2.78428C20.3002 2.78428 21.4398 3.9239 21.4398 5.32971C21.4398 6.00481 21.1716 6.65224 20.6942 7.12961L17.4323 10.3916C16.9549 10.8689 16.3075 11.1371 15.6324 11.1371C14.5022 11.1371 13.544 10.4005 13.2118 9.38125L11.137 11.4561C12.0835 12.9384 13.7431 13.9214 15.6324 13.9214C17.0459 13.9214 18.4015 13.3598 19.401 12.3603L22.663 9.09837C23.6625 8.09886 24.2241 6.74324 24.2241 5.32971C24.2241 2.38619 21.8379 0 18.8943 0C17.4808 0 16.1252 0.561519 15.1257 1.56103L6.29516 10.3916Z" fill="#394149"/>
</svg>
